<?xml version="1.0" encoding="iso-8859-1"?>
<!-- Generator: Adobe Illustrator 15.0.0, SVG Export Plug-In . SVG Version: 6.00 Build 0)  -->
<!DOCTYPE svg PUBLIC "-//W3C//DTD SVG 1.1//EN" "http://www.w3.org/Graphics/SVG/1.1/DTD/svg11.dtd">
<svg version="1.1" id="Layer_2" xmlns="http://www.w3.org/2000/svg" xmlns:xlink="http://www.w3.org/1999/xlink" x="0px" y="0px"
	 width="41.375px" height="41.5px" viewBox="0 0 41.375 41.5" style="enable-background:new 0 0 41.375 41.5;" xml:space="preserve"
	>
<path style="fill:#8A0D2A;" d="M36.542,21.592c0.007,0.005,0.014,0.016,0.019,0.031v0.011c0.177,0.514,0.335,1.004,0.475,1.47
	c0.141,0.465,0.314,0.806,0.521,1.021l0.011,0.011c0.173,0.146,0.309,0.269,0.408,0.365c0.09,0.091,0.15,0.153,0.178,0.189
	c0.133,0.224,0.214,0.479,0.241,0.767c-0.02,0.138-0.04,0.259-0.061,0.364c-0.022,0.098-0.047,0.186-0.075,0.262l-0.167,0.4
	c-0.05,0.145-0.099,0.289-0.147,0.429c-0.042,0.146-0.082,0.289-0.116,0.431c-0.005,0.061-0.015,0.122-0.03,0.185
	c-0.008,0.071-0.016,0.133-0.023,0.188l-0.007,0.011c-0.036-0.011-0.074-0.028-0.117-0.053c-0.322-0.181-0.569-0.407-0.743-0.678
	c-0.168-0.279-0.267-0.605-0.294-0.975c-0.006-0.078-0.001-0.184,0.01-0.316c0.008-0.131,0.015-0.284,0.022-0.461l0.009-0.218
	c0.058-0.106,0.065-0.273,0.022-0.501c-0.056,0.243-0.126,0.532-0.211,0.866c-0.012,0.055-0.027,0.112-0.042,0.17
	c-0.091,0.343-0.154,0.639-0.189,0.891c-0.035,0.188-0.053,0.353-0.053,0.49c0,0.314,0.063,0.634,0.189,0.955
	c0.125,0.314,0.314,0.631,0.565,0.95c0.154,0.188,0.275,0.342,0.366,0.459c0.085,0.113,0.142,0.192,0.17,0.232
	c0.153,0.245,0.23,0.479,0.23,0.701c0,0.113-0.07,0.345-0.211,0.694c-0.13,0.347-0.333,0.814-0.607,1.404l-0.887,1.853
	c-0.204,0.425-0.313,0.889-0.329,1.392c-0.004,0.146-0.007,0.311-0.007,0.494c0,0.175,0.007,0.373,0.019,0.596
	c-0.012,0.336-0.121,0.573-0.325,0.714c-0.236,0.159-0.672,0.237-1.309,0.237c-0.405,0-0.81-0.03-1.215-0.094
	c-0.508-0.091-0.762-0.205-0.762-0.343c0-0.303,0.153-0.75,0.46-1.344c0.056-0.111,0.128-0.247,0.219-0.408
	c0.09-0.165,0.202-0.357,0.335-0.572c0.126-0.217,0.272-0.461,0.438-0.735c0.189-0.321,0.375-0.642,0.559-0.963
	c0.181-0.322,0.355-0.643,0.521-0.963c0-0.043,0.008-0.085,0.022-0.128V31.99l0.011-0.072c-0.007-0.246-0.122-0.466-0.347-0.66
	c-0.133-0.113-0.395-0.274-0.784-0.482l-0.219-0.124c-0.077-0.043-0.144-0.082-0.2-0.117c-0.027,0.079-0.059,0.155-0.093,0.231
	c-0.036,0.077-0.074,0.151-0.117,0.222c-0.181,0.284-0.475,0.611-0.879,0.981c-0.245,0.203-0.457,0.39-0.638,0.559
	c-0.181,0.166-0.334,0.309-0.46,0.426c-0.432,0.427-0.771,0.858-1.019,1.289c-0.181,0.309-0.337,0.619-0.468,0.934
	c-0.141,0.307-0.256,0.617-0.346,0.932c-0.05,0.161-0.1,0.338-0.147,0.532c-0.056,0.188-0.109,0.395-0.159,0.617
	c-0.111,0.288-0.282,0.484-0.513,0.59c-0.257,0.103-0.72,0.155-1.393,0.155h-0.974c-0.48-0.021-0.718-0.093-0.713-0.22
	c-0.005-0.18,0.052-0.396,0.17-0.648c0.11-0.258,0.285-0.555,0.524-0.89c0.154-0.225,0.358-0.497,0.615-0.819
	c0.252-0.312,0.556-0.667,0.913-1.067l1.434-1.675c0.035-0.04,0.063-0.075,0.083-0.105l0.136-0.178
	c0.044-0.055,0.085-0.106,0.129-0.155c-0.078-0.538-0.253-0.981-0.525-1.332c-0.271-0.354-0.645-0.609-1.12-0.766
	c-0.268-0.091-0.617-0.156-1.05-0.197c-0.035-0.006-0.067-0.01-0.094-0.01h-0.408c0-0.015,0-0.024,0-0.031
	c-0.322-0.021-0.678-0.033-1.068-0.033c-0.133,0-0.332,0.026-0.596,0.076c-0.267,0.041-0.602,0.109-1.007,0.207
	c-0.314,0.078-0.566,0.137-0.755,0.178c-0.188,0.043-0.311,0.063-0.366,0.063h-0.03l-1.565,0.498
	c-0.12-0.36-0.497-0.926-1.129-1.697c0.252,1.429,0.362,2.174,0.328,2.237c-0.343,0.594-1.028,1.25-2.056,1.97
	c-0.775,0.536-1.427,0.878-1.958,1.026c0.042,0.083,0.091,0.157,0.147,0.22c0.168,0.195,0.428,0.313,0.776,0.354
	c0.099,0.008,0.213,0.019,0.344,0.034c0.126,0.007,0.272,0.018,0.441,0.029c0.236,0.051,0.359,0.197,0.366,0.442
	c0,0.109-0.024,0.299-0.072,0.564c-0.05,0.265-0.117,0.603-0.2,1.017c-0.098,0.444-0.182,0.778-0.252,1.003
	c-0.07,0.216-0.125,0.324-0.166,0.324c-0.181,0-0.411-0.118-0.69-0.354c-0.287-0.231-0.623-0.583-1.007-1.056
	c-0.412-0.49-0.727-0.894-0.943-1.208c-0.104,0.126-0.204,0.241-0.302,0.347c-0.098,0.111-0.193,0.21-0.283,0.293l-0.095,0.304
	c-0.176,0.495-0.347,0.827-0.513,0.995l-1.31,0.167c-0.488,0.063-0.902,0.094-1.245,0.094c-0.329,0-0.495-0.094-0.495-0.282
	c0-0.041,0.103-0.208,0.306-0.502c0.208-0.292,0.519-0.715,0.932-1.268c0.406-0.552,0.712-0.969,0.921-1.258
	c0.201-0.277,0.306-0.429,0.313-0.448c-0.007-0.09-0.074-0.202-0.201-0.336l-0.425-0.388c-0.421-0.378-0.631-0.712-0.631-1.004
	c0-0.216,0.108-0.446,0.324-0.69c0.056-0.063,0.144-0.146,0.264-0.253c0.118-0.105,0.264-0.229,0.438-0.366
	c0.335-0.266,0.573-0.483,0.713-0.648c0.202-0.252,0.306-0.499,0.313-0.742c-0.133-0.024-0.29-0.059-0.471-0.107
	c-0.314-0.09-0.936,0.036-1.863,0.378c-0.229,0.083-0.428,0.195-0.596,0.337c-0.181,0.433-0.28,0.856-0.294,1.274
	c-0.013,0.656-0.25,1.404-0.713,2.241c-0.46,0.846-0.861,1.268-1.204,1.268c-0.013,0-0.135-0.317-0.366-0.951
	c-0.252-0.671-0.461-1.08-0.629-1.226c-0.571-0.49-0.857-1.224-0.857-2.199c0-0.071,0.003-0.141,0.011-0.212H6.347
	c-0.071,0.022-0.21,0.075-0.419,0.158c-0.189,0.07-0.334,0.106-0.438,0.106c-0.49,0-0.907-0.431-1.249-1.291
	c-0.398-0.984-0.656-1.514-0.774-1.592c-0.44-0.299-0.8-0.802-1.079-1.507C2.129,25.831,2,25.147,2,24.442
	c0-0.25,0.224-1.055,0.671-2.41c0.46-1.354,0.708-2.087,0.743-2.2c0.197-0.565,0.791-0.936,1.781-1.109
	c0.342-0.055,0.893-0.097,1.653-0.124c0.762-0.028,1.342-0.332,1.739-0.913c0.224-0.335,0.434-0.61,0.63-0.827
	c0.754-0.872,1.281-1.456,1.581-1.75c1.387-1.354,3.011-2.029,4.87-2.029c1.648,0,3.993,0.798,7.037,2.395
	c0.795,0.421,1.919,1.033,3.373,1.835c1.18,0.636,2.056,1.041,2.63,1.215c0.153,0.05,0.488,0.121,1.003,0.211h1.834
	c2.107-0.134,3.759,0.796,4.954,2.783C36.512,21.537,36.526,21.562,36.542,21.592z M5.765,23.83
	c-0.01,0.018-0.019,0.042-0.025,0.072c-0.189,0.348-0.284,0.719-0.284,1.115c0,0.219,0.07,0.443,0.214,0.679
	c0.169,0.282,0.381,0.423,0.637,0.423c0.584,0,1.054-0.329,1.411-0.987c0.329-0.602,0.494-1.324,0.494-2.167
	c0-0.404-0.112-1.049-0.336-1.936c-0.153-0.536-0.275-0.934-0.367-1.188c0.09,0.721-0.036,1.575-0.38,2.565
	C6.785,23.396,6.33,23.872,5.765,23.83z"/>
</svg>
